<svg width="291" height="356" viewBox="0 0 291 356" fill="none" xmlns="http://www.w3.org/2000/svg">
<mask id="mask0_7_182" style="mask-type:alpha" maskUnits="userSpaceOnUse" x="0" y="0" width="291" height="356">
<rect width="290.999" height="355.977" fill="#D9D9D9"/>
</mask>
<g mask="url(#mask0_7_182)">
<path d="M581.822 27.6074C581.938 31.2849 581.998 34.9783 581.998 38.6865C581.998 213.917 451.712 355.971 290.998 355.971C221.524 355.971 157.736 329.424 107.701 285.129L163.87 233.719C199.738 261.563 243.614 277.939 290.998 277.939C412.185 277.939 510.427 170.826 510.431 38.6934H581.822V27.6074ZM71.5654 38.6934C71.5664 75.6894 79.2702 110.724 93.0215 141.995L36.8701 193.384C13.3859 147.62 -0.00086137 94.8609 -0.00195312 38.6934H0V0H71.5674V38.6934H71.5654Z" fill="white"/>
<path d="M290.999 0.0022583V89.6409L0.00012207 355.979L-45.6425 296.697L193.99 77.389H0.00012207V77.3821H93.6232C91.566 64.8233 90.4923 51.8926 90.4923 38.6888V0.0022583H290.999Z" fill="#70F1FC"/>
</g>
</svg>